<?xml version="1.0" standalone="no"?>
<!DOCTYPE svg PUBLIC "-//W3C//DTD SVG 20010904//EN"
 "http://www.w3.org/TR/2001/REC-SVG-20010904/DTD/svg10.dtd">
<svg version="1.0" xmlns="http://www.w3.org/2000/svg"
 width="216.000000pt" height="216.000000pt" viewBox="0 0 216.000000 216.000000"
 preserveAspectRatio="xMidYMid meet">
<metadata>
Created by potrace 1.14, written by Peter Selinger 2001-2017
</metadata>
<g transform="translate(0.000000,216.000000) scale(0.100000,-0.100000)"
fill="#000000" stroke="none">
<path d="M514 2140 c-193 -50 -349 -177 -439 -355 -25 -49 -48 -101 -51 -115
-3 -14 -8 -41 -12 -60 -8 -42 -9 -1036 -1 -1065 3 -11 11 -40 18 -65 50 -174
188 -332 363 -415 136 -64 147 -65 713 -62 l510 2 76 27 c208 73 362 226 436
432 26 73 28 124 28 636 0 462 -2 510 -18 564 -71 229 -235 395 -467 472 -50
17 -102 19 -570 21 -476 2 -520 1 -586 -17z"/>
</g>
</svg>
